        <svg
          className="svg1"
          width="278"
          height="474"
          viewBox="0 0 278 474"
          fill="none"
          xmlns="http://www.w3.org/2000/svg"
        >
          <g id="Group 2">
            <g id="earth" clipPath="url(#clip0_1_90)">
              <path
                id="Vector"
                d="M138.515 203.921C137.457 205.108 135.352 206.492 134.31 205.914C131.911 204.584 129.115 202.227 133.866 200.578C138.615 198.926 141.79 200.24 138.515 203.921ZM126.508 262.272C120.491 251.586 130.089 254.827 134.533 255.687C138.975 256.543 128.163 265.209 126.508 262.272M245.103 290.077C233.419 290.647 241.383 276.215 231.491 273.901C227.558 272.981 225.32 270.466 224.938 263.756C224.328 253.05 226.061 246.678 229.104 228.355C226.762 226.356 224.344 224.464 221.884 222.63C218.189 242.035 210.017 232.493 203.708 229.229C188.954 221.599 201.097 211.389 184.994 211.86C170.604 212.28 173.489 205.683 178.843 200.921C158.999 194.932 137.684 193.31 116.35 196.864C119.276 199.699 121.751 203.315 121.088 207.127C119.832 214.351 121.978 215.736 124.368 219.283C134.027 233.615 126.135 231.322 108.16 230.189C85.2664 228.747 98.442 213.456 83.5949 217.124C73.7994 219.542 70.8145 217.592 69.9005 213.431C68.1987 214.406 66.5376 215.429 64.8889 216.471C67.424 224.504 65.0399 230.985 75.3946 226.527C94.3648 218.36 101.99 243.733 77.3706 249.29C61.378 252.902 59.3544 269.675 70.9093 270.914C83.6711 272.283 77.5372 255.792 85.1843 250.112C98.2351 240.421 100.661 250.999 111.193 249.558C134.107 246.426 113.773 257.872 121.354 271.889C129.027 286.076 106.58 293.552 112.534 307.258C121.37 327.601 118.756 335.849 105.123 331.284C91.4903 326.719 76.9853 362.742 97.8771 353.427C118.769 344.113 106.97 359.553 134.801 359.464C151.089 359.412 145.412 369.113 132.071 372.283C122.808 374.484 116.327 369.811 102.365 379.628C76.8387 397.58 81.9034 361.14 55.9429 370.8C37.6939 377.592 40.8239 360.634 31.086 358.964C17.781 356.686 20.8593 345.61 18.9409 337.461C16.9646 329.068 11.2507 322.496 1.68803 312.917C-1.62038 334.031 -0.165882 356.22 6.9276 377.924C30.8446 451.096 109.338 490.957 182.249 466.954C188.533 464.888 194.552 462.384 200.325 459.54C200.259 456.516 200.46 452.488 200.907 447.522C202.42 430.666 191.443 430.793 189.282 416.64C187.662 406.036 185.044 402.807 178.13 402.877C162.172 403.043 154.095 397.085 150.629 366.671C148.135 344.804 160.194 357.022 165.737 353.021C169.294 350.456 176.131 341.565 194.745 343.327C213.361 345.091 217.576 346.575 229.844 342.45C257.279 333.224 233.838 352.015 235.351 367.793C237.199 387.043 225.423 403.98 221.506 413.26C218.815 419.628 222.45 422.784 220.471 428.135C216.244 439.554 212.765 448.184 209.952 454.306C264.729 421.682 291.638 354.264 270.962 291.003C270.854 290.673 270.726 290.357 270.615 290.027C269.719 291.674 268.786 293.335 267.769 295.033C256.772 313.392 254.209 289.633 245.103 290.077Z"
                fill="#0D2972"
              />
              <g id="Group">
                <path
                  id="Vector_2"
                  d="M18.9413 337.461C20.8597 345.61 17.7813 356.686 31.0863 358.965C40.8246 360.634 37.6945 377.592 55.9432 370.8C81.9048 361.14 76.8391 397.58 102.366 379.629C116.327 369.811 122.809 374.484 132.071 372.284C145.412 369.113 151.089 359.412 134.802 359.464C106.97 359.553 118.769 344.112 97.8774 353.428C76.9857 362.743 91.4896 326.721 105.124 331.284C118.758 335.848 121.37 327.602 112.535 307.259C106.581 293.552 129.029 286.076 121.354 271.89C113.774 257.872 134.108 246.426 111.194 249.558C100.661 250.999 98.2354 240.422 85.1846 250.112C77.5379 255.792 83.6728 272.285 70.9097 270.915C59.3551 269.676 61.3783 252.902 77.3709 249.29C101.992 243.733 94.3648 218.36 75.3946 226.528C65.0403 230.986 67.4243 224.504 64.8892 216.471C30.5962 238.113 7.84368 273.638 1.68835 312.917C11.2511 322.495 16.9652 329.068 18.9409 337.461M221.506 413.26C225.424 403.98 237.198 387.043 235.352 367.794C233.838 352.015 257.279 333.225 229.844 342.45C217.577 346.576 213.362 345.091 194.745 343.329C176.131 341.565 169.293 350.456 165.738 353.021C160.195 357.023 148.136 344.804 150.629 366.671C154.095 397.085 162.172 403.043 178.13 402.879C185.044 402.807 187.663 406.035 189.282 416.641C191.444 430.793 202.421 430.666 200.907 447.524C200.459 452.488 200.259 456.517 200.326 459.54C203.602 457.924 206.813 456.177 209.951 454.306C212.764 448.186 216.245 439.554 220.471 428.135C222.45 422.785 218.816 419.628 221.506 413.26Z"
                  fill="#5CA13B"
                />
                <path
                  id="Vector_3"
                  d="M134.532 255.686C130.089 254.827 120.49 251.586 126.509 262.272C128.163 265.21 138.974 256.544 134.532 255.686ZM133.867 200.578C129.115 202.229 131.912 204.584 134.311 205.914C135.353 206.494 137.458 205.109 138.516 203.921C141.791 200.241 138.616 198.926 133.867 200.578ZM83.5956 217.125C98.4427 213.457 85.267 228.748 108.16 230.19C126.136 231.323 134.028 233.616 124.369 219.284C121.979 215.737 119.833 214.352 121.089 207.127C121.752 203.316 119.277 199.7 116.351 196.864C109.328 198.037 102.405 199.744 95.6403 201.972C86.5215 204.973 77.9217 208.833 69.9011 213.431C70.8138 217.593 73.8 219.544 83.5956 217.125ZM184.993 211.861C201.097 211.389 188.954 221.599 203.708 229.229C210.018 232.493 218.19 242.035 221.883 222.631C208.898 212.947 194.334 205.601 178.843 200.921C173.49 205.683 170.604 212.281 184.993 211.861ZM224.937 263.757C225.32 270.466 227.557 272.982 231.492 273.901C241.383 276.216 233.42 290.648 245.104 290.078C254.209 289.632 256.772 313.393 267.77 295.034C268.786 293.336 269.719 291.673 270.615 290.028C262.293 265.178 247.67 244.214 229.104 228.356C226.062 246.678 224.328 253.05 224.937 263.757Z"
                  fill="#5CA13B"
                />
              </g>
            </g>
            <g id="lady">
              <g id="Group_2">
                <path
                  id="Vector_4"
                  d="M100.047 202.296L78.1695 187.208L56.781 200.586C88.4472 203.057 96.4266 212.943 128.343 236.732C132.816 240.065 136.822 242.658 140.435 244.659C144.049 242.658 148.055 240.065 152.528 236.732C184.444 212.943 192.424 203.057 224.09 200.586L201.726 186.595L178.962 202.296H100.047Z"
                  fill="#0F4EF0"
                />
                <path
                  id="Vector_5"
                  d="M158.015 269.17C183.448 279.674 188.186 303.464 188.186 303.464C188.186 303.464 192.923 306.553 193.421 297.901C193.421 297.901 199.68 292.033 191.191 282.764C185.872 276.958 186.722 266.183 185.463 258.335C170.256 260.381 154.519 261.311 140.436 264.102C146.684 265.339 152.61 266.938 158.015 269.17Z"
                  fill="#E67E91"
                />
                <path
                  id="Vector_6"
                  d="M79.2214 231.865C80.7643 219.963 89.7486 214.962 96.1175 212.89C84.8555 205.694 74.5456 201.971 56.7814 200.586L78.1699 187.208L50.5171 168.134C34.2812 173.951 22.8714 186.376 22.8714 203.984C22.8714 225.917 38.8288 242.293 67.253 252.179C72.0779 253.856 77.1502 255.141 82.3643 256.187C80.0979 250.626 77.8884 242.154 79.2214 231.865Z"
                  fill="#0F4EF0"
                />
                <g id="Group_3">
                  <path
                    id="Vector_7"
                    d="M101.662 249.089C110.882 246.965 118.259 256.944 140.435 244.66C136.822 242.657 132.815 240.066 128.342 236.731C114.331 226.287 104.932 218.525 96.1172 212.892C89.7479 214.961 80.764 219.963 79.221 231.865C77.8891 242.155 80.0975 250.626 82.364 256.187C86.6326 257.043 90.9951 257.74 95.4069 258.333C96.1581 253.653 97.6577 250.014 101.662 249.089Z"
                    fill="#E67E91"
                  />
                  <path
                    id="Vector_8"
                    d="M201.524 233.024C199.174 220.47 187.989 215.431 183.291 213.844C174.889 219.392 165.769 226.861 152.528 236.732C148.056 240.065 144.05 242.657 140.436 244.658C118.258 256.945 110.882 246.964 101.662 249.088C97.657 250.013 96.1578 253.654 95.408 258.334C94.1496 266.182 94.9999 276.958 89.6807 282.763C81.191 292.033 87.451 297.902 87.451 297.902C87.9481 306.552 92.6851 303.463 92.6851 303.463C92.6851 303.463 97.4238 279.674 122.857 269.17C128.262 266.938 134.188 265.338 140.436 264.101C154.519 261.311 170.256 260.38 185.463 258.334C190.06 257.716 194.605 256.987 199.043 256.079C201.162 250.382 203.195 241.959 201.524 233.024Z"
                    fill="#E67E91"
                  />
                </g>
                <path
                  id="Vector_9"
                  d="M229.113 167.706L201.726 186.596L224.09 200.586C205.562 202.032 195.141 206.023 183.291 213.845C187.989 215.431 199.175 220.47 201.523 233.024C203.197 241.959 201.163 250.382 199.044 256.079C204.07 255.054 208.96 253.799 213.617 252.179C242.043 242.293 258 225.917 258 203.984C258 185.932 246.005 173.326 229.113 167.706ZM216.716 165.378C216.716 165.378 191.075 158.254 166.021 170.689C140.967 183.124 180.224 193.896 180.224 193.896L216.716 165.378ZM56.9028 165.378C56.9028 165.378 82.5442 158.254 107.598 170.689C132.652 183.124 93.3953 193.896 93.3953 193.896L56.9028 165.378Z"
                  fill="#0F4EF0"
                />
              </g>
              <g id="Group_4">
                <path
                  id="Vector_10"
                  d="M224.09 200.585C192.423 203.057 184.444 212.944 152.528 236.731C148.056 240.064 144.05 242.657 140.436 244.658"
                  stroke="#1E1E1E"
                  strokeWidth="1.792"
                  strokeMiterlimit="10"
                />
                <path
                  id="Vector_11"
                  d="M140.436 244.659C118.258 256.945 110.882 246.964 101.663 249.089"
                  stroke="#1E1E1E"
                  strokeWidth="1.792"
                  strokeMiterlimit="10"
                />
                <path
                  id="Vector_12"
                  d="M140.435 244.659C136.821 242.658 132.815 240.066 128.343 236.732C96.427 212.943 88.4479 203.057 56.7814 200.586"
                  stroke="#1E1E1E"
                  strokeWidth="1.792"
                  strokeMiterlimit="10"
                />
                <path
                  id="Vector_13"
                  d="M140.435 264.101C154.519 261.311 170.256 260.379 185.464 258.334"
                  stroke="#1E1E1E"
                  strokeWidth="1.792"
                  strokeMiterlimit="10"
                />
              </g>
              <g id="Group_5">
                <path
                  id="Vector_14"
                  d="M186.552 135.078H92.3053C88.8179 135.078 86.1986 138.731 86.8752 142.653L90.4428 163.322L92.2601 173.862L92.4702 175.076L96.7738 200.024L97.3559 203.398C97.4969 204.216 97.8813 204.952 98.4434 205.481C99.0054 206.01 99.7104 206.299 100.438 206.298H178.421C179.148 206.298 179.853 206.009 180.415 205.48C180.977 204.951 181.361 204.215 181.503 203.398L182.085 200.024L186.389 175.076L186.781 172.802L188.365 163.618L191.982 142.652C192.659 138.73 190.041 135.078 186.552 135.078"
                  fill="#2C3B60"
                />
                <path
                  id="Vector_15"
                  d="M53.4354 120.767C41.5797 133.526 24.54 156.589 22.7986 159.677C21.0894 162.708 22.2358 166.772 25.1701 168.082L39.6675 174.55L71.5497 188.772L96.7742 200.024L92.4702 175.074C92.2017 174.785 70.4383 158.301 61.2121 153.576L75.3605 138.508C71.4737 124.088 59.4136 121.261 53.4354 120.767ZM225.422 120.767C237.278 133.526 254.318 156.589 256.059 159.677C257.77 162.708 256.622 166.772 253.688 168.082L239.19 174.55L207.308 188.772L182.084 200.024L186.388 175.074C186.657 174.785 208.419 158.301 217.647 153.576L203.497 138.508C207.384 124.088 219.444 121.261 225.422 120.767Z"
                  fill="#E67E91"
                />
                <path
                  id="Vector_16"
                  d="M194.447 87.5089C182.69 73.7881 174.938 73.0591 165.203 68.5405C153.827 63.2584 154.021 57.5879 154.031 57.3841C150.964 63.7282 145.57 68.5405 139.429 68.5405C133.287 68.5405 127.895 63.7282 124.826 57.3841C124.837 57.5879 125.03 63.2584 113.654 68.5405C103.92 73.0591 96.1672 73.7881 84.4103 87.5089C83.1851 88.9379 67.826 105.28 53.4354 120.768C59.4136 121.261 71.4737 124.089 75.3605 138.508L96.3639 117.956V135.079H182.493V117.956L203.498 138.509C207.385 124.089 219.444 121.261 225.422 120.768L194.447 87.5089"
                  fill="#101727"
                />
                <path
                  id="Vector_17"
                  d="M111.469 74.353C123.809 68.6223 123.599 62.4709 123.589 62.2502C122.069 59.1073 121.075 55.6185 120.768 52.1217C114.182 52.4575 111.206 43.9907 113.947 39.5925C116.054 36.2108 119.176 37.8208 120.668 38.8956C120.671 38.8972 120.673 38.9008 120.676 38.9024C135.876 33.4695 145.128 24.8069 149.745 19.3944C150.114 24.0398 151.716 32.4898 158.19 38.5129L158.47 38.7668C160.023 37.7004 162.979 36.3448 165.005 39.5929C167.759 44.0124 164.741 52.5414 158.089 52.1181C157.784 55.6169 156.79 59.1073 155.27 62.2502C155.258 62.4688 155.045 68.6223 167.388 74.3526C177.949 79.2571 186.36 80.0447 199.113 94.9305H199.115C200.534 89.9489 201.498 79.2989 188.923 75.11C176.348 70.9212 183.076 67.5692 178.251 59.1927C173.426 50.8126 166.78 58.5207 166.78 49.8514V31.3464C166.78 14.0618 154.51 0 139.429 0C124.348 0 112.079 14.0618 112.079 31.3464V49.8514C112.079 58.5207 105.432 50.8126 100.608 59.1927C95.7829 67.5692 102.508 70.9208 89.9345 75.11C77.3609 79.2993 78.3238 89.9489 79.7425 94.9305H79.7457C92.4985 80.0447 100.909 79.2571 111.469 74.3526"
                  fill="#27292F"
                />
                <g id="Group_6">
                  <path
                    id="Vector_18"
                    d="M154.032 62.9607L152.213 85.1426C152.213 85.1426 148.762 94.1951 139.429 94.1955C130.096 94.196 126.645 85.1422 126.645 85.1422L124.826 62.9615"
                    fill="#E67E91"
                  />
                  <path
                    id="Vector_19"
                    d="M165.005 39.5929C162.979 36.3448 160.023 37.7005 158.47 38.7672C158.374 38.8322 158.276 38.8992 158.19 38.9626V38.5133C151.716 32.4902 150.114 24.0399 149.745 19.3945C145.128 24.8073 135.877 33.4699 120.676 38.9024C120.673 38.9024 120.671 38.904 120.668 38.906V38.896C119.176 37.8192 116.054 36.2112 113.947 39.5929C111.206 43.9912 114.182 52.4579 120.768 52.1221C121.075 55.6189 122.069 59.1077 123.589 62.2502C126.917 69.1343 132.767 74.353 139.429 74.353C146.092 74.353 151.94 69.1343 155.27 62.2502C156.79 59.1077 157.784 55.6173 158.089 52.1185C164.741 52.5414 167.759 44.0124 165.005 39.5929Z"
                    fill="#E67E91"
                  />
                </g>
              </g>
              <path
                id="Vector_20"
                d="M124.827 63.1966C127.895 69.5427 133.287 74.353 139.429 74.3526"
                stroke="#1E1E1E"
                strokeWidth="1.792"
                strokeMiterlimit="10"
              />
              <path
                id="Vector_21"
                d="M146.827 175.958C146.309 179.358 143.283 181.759 140 181.759C136.717 181.759 133.692 179.358 133.174 175.958C132.564 171.951 135.573 168.133 140 168.133C144.426 168.133 147.437 171.951 146.827 175.958Z"
                fill="#0F4EF0"
              />
            </g>
          </g>
          <defs>
            <clipPath id="clip0_1_90">
              <rect
                width="278"
                height="279"
                fill="white"
                transform="translate(0 195)"
              />
            </clipPath>
          </defs>
        </svg>