 <svg
            className="logo"
            width="595"
            height="63"
            viewBox="0 0 595 63"
            fill="none"
            xmlns="http://www.w3.org/2000/svg"
          >
            <path
              d="M35.5 20.6818C35.2576 18.5303 34.2576 16.8636 32.5 15.6818C30.7424 14.4848 28.5303 13.8864 25.8636 13.8864C23.9546 13.8864 22.303 14.1894 20.9091 14.7954C19.5152 15.3864 18.4318 16.2045 17.6591 17.25C16.9015 18.2803 16.5227 19.4545 16.5227 20.7727C16.5227 21.8788 16.7803 22.8333 17.2955 23.6364C17.8258 24.4394 18.5152 25.1136 19.3636 25.6591C20.2273 26.1894 21.1515 26.6364 22.1364 27C23.1212 27.3485 24.0682 27.6364 24.9773 27.8636L29.5227 29.0455C31.0076 29.4091 32.5303 29.9015 34.0909 30.5227C35.6515 31.1439 37.0985 31.9621 38.4318 32.9773C39.7652 33.9924 40.8409 35.25 41.6591 36.75C42.4924 38.25 42.9091 40.0455 42.9091 42.1364C42.9091 44.7727 42.2273 47.1136 40.8636 49.1591C39.5152 51.2045 37.553 52.8182 34.9773 54C32.4167 55.1818 29.3182 55.7727 25.6818 55.7727C22.197 55.7727 19.1818 55.2197 16.6364 54.1136C14.0909 53.0076 12.0985 51.4394 10.6591 49.4091C9.21971 47.3636 8.42425 44.9394 8.27274 42.1364H15.3182C15.4546 43.8182 16 45.2197 16.9546 46.3409C17.9243 47.447 19.1591 48.2727 20.6591 48.8182C22.1743 49.3485 23.8333 49.6136 25.6364 49.6136C27.6212 49.6136 29.3864 49.303 30.9318 48.6818C32.4924 48.0454 33.7197 47.1667 34.6136 46.0455C35.5076 44.9091 35.9546 43.5833 35.9546 42.0682C35.9546 40.6894 35.5606 39.5606 34.7727 38.6818C34 37.803 32.947 37.0758 31.6136 36.5C30.2955 35.9242 28.803 35.4167 27.1364 34.9773L21.6364 33.4773C17.9091 32.4621 14.9546 30.9697 12.7727 29C10.6061 27.0303 9.52274 24.4242 9.52274 21.1818C9.52274 18.5 10.25 16.1591 11.7046 14.1591C13.1591 12.1591 15.1288 10.6061 17.6136 9.5C20.0985 8.37878 22.9015 7.81818 26.0227 7.81818C29.1743 7.81818 31.9546 8.37121 34.3636 9.47727C36.7879 10.5833 38.697 12.1061 40.0909 14.0454C41.4849 15.9697 42.2121 18.1818 42.2727 20.6818H35.5Z"
              stroke="#061927"
              strokeWidth="5"
            />
            <path
              d="M51.3011 55V8.45454H80.483V14.5H58.3239V28.6818H78.9602V34.7045H58.3239V48.9545H80.7557V55H51.3011Z"
              stroke="#061927"
              strokeWidth="4"
            />
            <path
              d="M128.523 23.5909H121.432C121.159 22.0758 120.652 20.7424 119.909 19.5909C119.167 18.4394 118.258 17.4621 117.182 16.6591C116.106 15.8561 114.902 15.25 113.568 14.8409C112.25 14.4318 110.848 14.2273 109.364 14.2273C106.682 14.2273 104.28 14.9015 102.159 16.25C100.053 17.5985 98.3864 19.5758 97.1591 22.1818C95.947 24.7879 95.3409 27.9697 95.3409 31.7273C95.3409 35.5151 95.947 38.7121 97.1591 41.3182C98.3864 43.9242 100.061 45.8939 102.182 47.2273C104.303 48.5606 106.689 49.2273 109.341 49.2273C110.811 49.2273 112.205 49.0303 113.523 48.6364C114.856 48.2273 116.061 47.6288 117.136 46.8409C118.212 46.053 119.121 45.0909 119.864 43.9545C120.621 42.803 121.144 41.4848 121.432 40L128.523 40.0227C128.144 42.3106 127.409 44.4167 126.318 46.3409C125.242 48.25 123.856 49.9015 122.159 51.2955C120.477 52.6742 118.553 53.7424 116.386 54.5C114.22 55.2576 111.856 55.6364 109.295 55.6364C105.265 55.6364 101.674 54.6818 98.5227 52.7727C95.3712 50.8485 92.8864 48.0985 91.0682 44.5227C89.2652 40.947 88.3636 36.6818 88.3636 31.7273C88.3636 26.7576 89.2727 22.4924 91.0909 18.9318C92.9091 15.3561 95.3939 12.6136 98.5455 10.7045C101.697 8.7803 105.28 7.81818 109.295 7.81818C111.765 7.81818 114.068 8.17424 116.205 8.88636C118.356 9.58333 120.288 10.6136 122 11.9773C123.712 13.3258 125.129 14.9773 126.25 16.9318C127.371 18.8712 128.129 21.0909 128.523 23.5909Z"
              stroke="#061927"
              strokeWidth="4"
            />
            <path
              d="M136.926 55V8.45454H143.949V28.6818H167.153V8.45454H174.199V55H167.153V34.7045H143.949V55H136.926Z"
              stroke="#061927"
              strokeWidth="5"
            />
            <path
              d="M214.358 8.45454H221.403V39.0682C221.403 42.3258 220.638 45.2121 219.108 47.7273C217.578 50.2273 215.426 52.197 212.653 53.6364C209.881 55.0606 206.631 55.7727 202.903 55.7727C199.191 55.7727 195.949 55.0606 193.176 53.6364C190.403 52.197 188.252 50.2273 186.722 47.7273C185.191 45.2121 184.426 42.3258 184.426 39.0682V8.45454H191.449V38.5C191.449 40.6061 191.911 42.4773 192.835 44.1136C193.775 45.75 195.1 47.0379 196.813 47.9773C198.525 48.9015 200.555 49.3636 202.903 49.3636C205.267 49.3636 207.305 48.9015 209.017 47.9773C210.744 47.0379 212.063 45.75 212.972 44.1136C213.896 42.4773 214.358 40.6061 214.358 38.5V8.45454Z"
              stroke="#061927"
              strokeWidth="5"
            />
            <path
              d="M231.614 55V8.45454H248.659C251.962 8.45454 254.697 8.99999 256.864 10.0909C259.03 11.1667 260.652 12.6288 261.727 14.4773C262.803 16.3106 263.341 18.3788 263.341 20.6818C263.341 22.6212 262.985 24.2576 262.273 25.5909C261.561 26.9091 260.606 27.9697 259.409 28.7727C258.227 29.5606 256.924 30.1364 255.5 30.5V30.9545C257.045 31.0303 258.553 31.5303 260.023 32.4545C261.508 33.3636 262.735 34.6591 263.705 36.3409C264.674 38.0227 265.159 40.0682 265.159 42.4773C265.159 44.8561 264.598 46.9924 263.477 48.8864C262.371 50.7651 260.659 52.2576 258.341 53.3636C256.023 54.4545 253.061 55 249.455 55H231.614ZM238.636 48.9773H248.773C252.136 48.9773 254.545 48.3258 256 47.0227C257.455 45.7197 258.182 44.0909 258.182 42.1364C258.182 40.6667 257.811 39.3182 257.068 38.0909C256.326 36.8636 255.265 35.8864 253.886 35.1591C252.523 34.4318 250.902 34.0682 249.023 34.0682H238.636V48.9773ZM238.636 28.5909H248.045C249.621 28.5909 251.038 28.2879 252.295 27.6818C253.568 27.0758 254.576 26.2273 255.318 25.1364C256.076 24.0303 256.455 22.7273 256.455 21.2273C256.455 19.303 255.78 17.6894 254.432 16.3864C253.083 15.0833 251.015 14.4318 248.227 14.4318H238.636V28.5909Z"
              stroke="#061927"
              strokeWidth="4"
            />
            <path
              d="M315.812 20.6818C315.57 18.5303 314.57 16.8636 312.812 15.6818C311.055 14.4848 308.843 13.8864 306.176 13.8864C304.267 13.8864 302.616 14.1894 301.222 14.7954C299.828 15.3864 298.744 16.2045 297.972 17.25C297.214 18.2803 296.835 19.4545 296.835 20.7727C296.835 21.8788 297.093 22.8333 297.608 23.6364C298.138 24.4394 298.828 25.1136 299.676 25.6591C300.54 26.1894 301.464 26.6364 302.449 27C303.434 27.3485 304.381 27.6364 305.29 27.8636L309.835 29.0455C311.32 29.4091 312.843 29.9015 314.403 30.5227C315.964 31.1439 317.411 31.9621 318.744 32.9773C320.078 33.9924 321.153 35.25 321.972 36.75C322.805 38.25 323.222 40.0455 323.222 42.1364C323.222 44.7727 322.54 47.1136 321.176 49.1591C319.828 51.2045 317.866 52.8182 315.29 54C312.729 55.1818 309.631 55.7727 305.994 55.7727C302.509 55.7727 299.494 55.2197 296.949 54.1136C294.403 53.0076 292.411 51.4394 290.972 49.4091C289.532 47.3636 288.737 44.9394 288.585 42.1364H295.631C295.767 43.8182 296.313 45.2197 297.267 46.3409C298.237 47.447 299.472 48.2727 300.972 48.8182C302.487 49.3485 304.146 49.6136 305.949 49.6136C307.934 49.6136 309.699 49.303 311.244 48.6818C312.805 48.0454 314.032 47.1667 314.926 46.0455C315.82 44.9091 316.267 43.5833 316.267 42.0682C316.267 40.6894 315.873 39.5606 315.085 38.6818C314.313 37.803 313.259 37.0758 311.926 36.5C310.608 35.9242 309.116 35.4167 307.449 34.9773L301.949 33.4773C298.222 32.4621 295.267 30.9697 293.085 29C290.919 27.0303 289.835 24.4242 289.835 21.1818C289.835 18.5 290.563 16.1591 292.017 14.1591C293.472 12.1591 295.441 10.6061 297.926 9.5C300.411 8.37878 303.214 7.81818 306.335 7.81818C309.487 7.81818 312.267 8.37121 314.676 9.47727C317.1 10.5833 319.009 12.1061 320.403 14.0454C321.797 15.9697 322.525 18.1818 322.585 20.6818H315.812Z"
              stroke="#061927"
              strokeWidth="4"
            />
            <path
              d="M328.023 8.45454H336L348.159 29.6136H348.659L360.818 8.45454H368.795L351.909 36.7273V55H344.909V36.7273L328.023 8.45454Z"
              stroke="#061927"
              strokeWidth="5"
            />
            <path
              d="M400.812 20.6818C400.57 18.5303 399.57 16.8636 397.812 15.6818C396.055 14.4848 393.843 13.8864 391.176 13.8864C389.267 13.8864 387.616 14.1894 386.222 14.7954C384.828 15.3864 383.744 16.2045 382.972 17.25C382.214 18.2803 381.835 19.4545 381.835 20.7727C381.835 21.8788 382.093 22.8333 382.608 23.6364C383.138 24.4394 383.828 25.1136 384.676 25.6591C385.54 26.1894 386.464 26.6364 387.449 27C388.434 27.3485 389.381 27.6364 390.29 27.8636L394.835 29.0455C396.32 29.4091 397.843 29.9015 399.403 30.5227C400.964 31.1439 402.411 31.9621 403.744 32.9773C405.078 33.9924 406.153 35.25 406.972 36.75C407.805 38.25 408.222 40.0455 408.222 42.1364C408.222 44.7727 407.54 47.1136 406.176 49.1591C404.828 51.2045 402.866 52.8182 400.29 54C397.729 55.1818 394.631 55.7727 390.994 55.7727C387.509 55.7727 384.494 55.2197 381.949 54.1136C379.403 53.0076 377.411 51.4394 375.972 49.4091C374.532 47.3636 373.737 44.9394 373.585 42.1364H380.631C380.767 43.8182 381.313 45.2197 382.267 46.3409C383.237 47.447 384.472 48.2727 385.972 48.8182C387.487 49.3485 389.146 49.6136 390.949 49.6136C392.934 49.6136 394.699 49.303 396.244 48.6818C397.805 48.0454 399.032 47.1667 399.926 46.0455C400.82 44.9091 401.267 43.5833 401.267 42.0682C401.267 40.6894 400.873 39.5606 400.085 38.6818C399.313 37.803 398.259 37.0758 396.926 36.5C395.608 35.9242 394.116 35.4167 392.449 34.9773L386.949 33.4773C383.222 32.4621 380.267 30.9697 378.085 29C375.919 27.0303 374.835 24.4242 374.835 21.1818C374.835 18.5 375.563 16.1591 377.017 14.1591C378.472 12.1591 380.441 10.6061 382.926 9.5C385.411 8.37878 388.214 7.81818 391.335 7.81818C394.487 7.81818 397.267 8.37121 399.676 9.47727C402.1 10.5833 404.009 12.1061 405.403 14.0454C406.797 15.9697 407.525 18.1818 407.585 20.6818H400.812Z"
              stroke="#061927"
              strokeWidth="4"
            />
            <path
              d="M414.318 14.5V8.45454H450.341V14.5H435.818V55H428.818V14.5H414.318Z"
              stroke="#061927"
              strokeWidth="4"
            />
            <path
              d="M458.301 55V8.45454H487.483V14.5H465.324V28.6818H485.96V34.7045H465.324V48.9545H487.756V55H458.301Z"
              stroke="#061927"
              strokeWidth="5"
            />
            <path
              d="M496.864 8.45454H505.386L520.205 44.6364H520.75L535.568 8.45454H544.091V55H537.409V21.3182H536.977L523.25 54.9318H517.705L503.977 21.2954H503.545V55H496.864V8.45454Z"
              stroke="#061927"
              strokeWidth="5"
            />
            <path
              d="M579.688 20.6818C579.445 18.5303 578.445 16.8636 576.688 15.6818C574.93 14.4848 572.718 13.8864 570.051 13.8864C568.142 13.8864 566.491 14.1894 565.097 14.7954C563.703 15.3864 562.619 16.2045 561.847 17.25C561.089 18.2803 560.71 19.4545 560.71 20.7727C560.71 21.8788 560.968 22.8333 561.483 23.6364C562.013 24.4394 562.703 25.1136 563.551 25.6591C564.415 26.1894 565.339 26.6364 566.324 27C567.309 27.3485 568.256 27.6364 569.165 27.8636L573.71 29.0455C575.195 29.4091 576.718 29.9015 578.278 30.5227C579.839 31.1439 581.286 31.9621 582.619 32.9773C583.953 33.9924 585.028 35.25 585.847 36.75C586.68 38.25 587.097 40.0455 587.097 42.1364C587.097 44.7727 586.415 47.1136 585.051 49.1591C583.703 51.2045 581.741 52.8182 579.165 54C576.604 55.1818 573.506 55.7727 569.869 55.7727C566.385 55.7727 563.369 55.2197 560.824 54.1136C558.278 53.0076 556.286 51.4394 554.847 49.4091C553.407 47.3636 552.612 44.9394 552.46 42.1364H559.506C559.642 43.8182 560.188 45.2197 561.142 46.3409C562.112 47.447 563.347 48.2727 564.847 48.8182C566.362 49.3485 568.021 49.6136 569.824 49.6136C571.809 49.6136 573.574 49.303 575.119 48.6818C576.68 48.0454 577.907 47.1667 578.801 46.0455C579.695 44.9091 580.142 43.5833 580.142 42.0682C580.142 40.6894 579.748 39.5606 578.96 38.6818C578.188 37.803 577.135 37.0758 575.801 36.5C574.483 35.9242 572.991 35.4167 571.324 34.9773L565.824 33.4773C562.097 32.4621 559.142 30.9697 556.96 29C554.794 27.0303 553.71 24.4242 553.71 21.1818C553.71 18.5 554.438 16.1591 555.892 14.1591C557.347 12.1591 559.316 10.6061 561.801 9.5C564.286 8.37878 567.089 7.81818 570.21 7.81818C573.362 7.81818 576.142 8.37121 578.551 9.47727C580.975 10.5833 582.885 12.1061 584.278 14.0454C585.672 15.9697 586.4 18.1818 586.46 20.6818H579.688Z"
              stroke="#061927"
              strokeWidth="4"
            />
          </svg>