<svg xmlns="http://www.w3.org/2000/svg" width="32px" height="13px" viewBox="0 0 32 13" version="1.1"><g id="Redesign" stroke="none" stroke-width="1" fill="none" fill-rule="evenodd"><g id="Case-Studies-Copy" transform="translate(-1368.000000, -38.000000)" fill="#1C1E24" class="toggle-svg"><g id="Group-3" transform="translate(32.000000, 24.000000)"><g id="Group" transform="translate(1336.000000, 14.000000)"><path d="M31,11 C31.5522847,11 32,11.4477153 32,12 C32,12.5522847 31.5522847,13 31,13 L11,13 C10.4477153,13 10,12.5522847 10,12 C10,11.4477153 10.4477153,11 11,11 L31,11 Z M31,0 C31.5522847,-1.01453063e-16 32,0.44771525 32,1 C32,1.55228475 31.5522847,2 31,2 L1,2 C0.44771525,2 6.76353751e-17,1.55228475 0,1 C-6.76353751e-17,0.44771525 0.44771525,1.01453063e-16 1,0 L31,0 Z" id="Combined-Shape"></path></g></g></g></g></svg>
